{"title":"Rio.2.2014.BluRay.1080p.AC3.x264~Invincible(HDDR)","uid":10441579,"size":3040196890,"categoryP":"video","categoryS":"hd___movies","magnet":"?xt=urn:btih:84b831c8a7afb66691e483cf9694153fc81a85f5&amp;dn=Rio.2.2014.BluRay.1080p.AC3.x264%7EInvincible%28HDDR%29&amp;tr=udp%3A%2F%2Ftracker.openbittorrent.com%3A80&amp;tr=udp%3A%2F%2Fopen.demonii.com%3A1337&amp;tr=udp%3A%2F%2Ftracker.coppersurfer.tk%3A6969&amp;tr=udp%3A%2F%2Fexodus.desync.com%3A6969","seeders":3,"leechers":1,"uploader":"boniin","files":16,"time":1403896177,"description":"General\nFormat                                   : Matroska\nFormat version                           : Version 4 / Version 2\nFile size                                : 2.79 GiB\nDuration                                 : 1h 41mn\nOverall bit rate                         : 3 949 Kbps\nEncoded date                             : UTC 2014-06-27 04:57:48\nWriting application                      : mkvmerge v6.9.1 ('Blue Panther') 32bit built on Apr 18 2014 18:15:44\nWriting library                          : libebml v1.3.0 + libmatroska v1.4.1\n\nVideo\nID                                       : 1\nFormat                                   : AVC\nFormat/Info                              : Advanced Video Codec\nFormat profile                           : &lt;a class=&quot;__cf_email__&quot; href=&quot;/cdn-cgi/l/email-protection&quot; data-cfemail=&quot;3179585659717d051f00&quot;&gt;[email&amp;#160;protected]&lt;/a&gt;&lt;script cf-hash='f9e31' type=&quot;text/javascript&quot;&gt;\n/* &lt;![CDATA[ */!function(){try{var t=&quot;currentScript&quot;in document?document.currentScript:function(){for(var t=document.getElementsByTagName(&quot;script&quot;),e=t.length;e--;)if(t[e].getAttribute(&quot;cf-hash&quot;))return t[e]}();if(t&amp;&amp;t.previousSibling){var e,r,n,i,c=t.previousSibling,a=c.getAttribute(&quot;data-cfemail&quot;);if(a){for(e=&quot;&quot;,r=parseInt(a.substr(0,2),16),n=2;a.length-n;n+=2)i=parseInt(a.substr(n,2),16)^r,e+=String.fromCharCode(i);e=document.createTextNode(e),c.parentNode.replaceChild(e,c)}}}catch(u){}}();/* ]]&gt; */&lt;/script&gt;\nFormat settings, CABAC                   : Yes\nFormat settings, ReFrames                : 5 frames\nCodec ID                                 : V_MPEG4/ISO/AVC\nDuration                                 : 1h 41mn\nBit rate                                 : 3 500 Kbps\nWidth                                    : 1 920 pixels\nHeight                                   : 800 pixels\nDisplay aspect ratio                     : 2.40:1\nFrame rate mode                          : Constant\nFrame rate                               : 23.976 fps\nColor space                              : YUV\nChroma subsampling                       : 4:2:0\nBit depth                                : 8 bits\nScan type                                : Progressive\nBits/(Pixel*Frame)                       : 0.095\nStream size                              : 2.42 GiB (87%)\nWriting library                          : x264 core 138 r2358 9e941d1\nEncoding settings                        : cabac=1 / ref=5 / deblock=1:1:1 / analyse=0x3:0x133 / me=umh / subme=10 / psy=1 / psy_rd=0.40:0.00 / mixed_ref=1 / me_range=24 / chroma_me=1 / trellis=2 / 8x8dct=1 / cqm=0 / deadzone=21,11 / fast_pskip=1 / chroma_qp_offset=-2 / threads=18 / lookahead_threads=4 / sliced_threads=0 / nr=0 / decimate=1 / interlaced=0 / bluray_compat=0 / constrained_intra=0 / bframes=10 / b_pyramid=2 / b_adapt=2 / b_bias=0 / direct=3 / weightb=1 / open_gop=0 / weightp=2 / keyint=240 / keyint_min=23 / scenecut=40 / intra_refresh=0 / rc_lookahead=60 / rc=2pass / mbtree=1 / bitrate=3500 / ratetol=1.0 / qcomp=0.60 / qpmin=0 / qpmax=69 / qpstep=4 / cplxblur=20.0 / qblur=0.5 / vbv_maxrate=62500 / vbv_bufsize=78125 / nal_hrd=none / ip_ratio=1.40 / aq=1:0.60\nLanguage                                 : English\nDefault                                  : Yes\nForced                                   : No\n\nAudio\nID                                       : 2\nFormat                                   : AC-3\nFormat/Info                              : Audio Coding 3\nMode extension                           : CM (complete main)\nFormat settings, Endianness              : Big\nCodec ID                                 : A_AC3\nDuration                                 : 1h 41mn\nBit rate mode                            : Constant\nBit rate                                 : 448 Kbps\nChannel(s)                               : 6 channels\nChannel positions                        : Front: L C R, Side: L R, LFE\nSampling rate                            : 48.0 KHz\nBit depth                                : 16 bits\nCompression mode                         : Lossy\nStream size                              : 324 MiB (11%)\nTitle                                    : 5.1 @448Kbps\nLanguage                                 : English\nDefault                                  : Yes\nForced                                   : No\n\nText #1\nID                                       : 3\nFormat                                   : UTF-8\nCodec ID                                 : S_TEXT/UTF8\nCodec ID/Info                            : UTF-8 Plain Text\nTitle                                    : English Forced\nLanguage                                 : English\nDefault                                  : No\nForced                                   : No\n\nText #2\nID                                       : 4\nFormat                                   : UTF-8\nCodec ID                                 : S_TEXT/UTF8\nCodec ID/Info                            : UTF-8 Plain Text\nTitle                                    : English\nLanguage                                 : English\nDefault                                  : No\nForced                                   : No\n\nMenu\n00:00:00.000                             : en:00:00:00.000\n00:03:10.816                             : en:00:03:10.816\n00:05:14.314                             : en:00:05:14.314\n00:08:49.362                             : en:00:08:49.362\n00:13:02.240                             : en:00:13:02.240\n00:17:36.305                             : en:00:17:36.305\n00:19:19.408                             : en:00:19:19.408\n00:22:30.349                             : en:00:22:30.349\n00:26:48.690                             : en:00:26:48.690\n00:29:00.155                             : en:00:29:00.155\n00:30:59.691                             : en:00:30:59.691\n00:33:46.566                             : en:00:33:46.566\n00:36:34.192                             : en:00:36:34.192\n00:39:20.233                             : en:00:39:20.233\n00:41:32.657                             : en:00:41:32.657\n00:45:05.119                             : en:00:45:05.119\n00:47:23.090                             : en:00:47:23.090\n00:49:58.162                             : en:00:49:58.162\n00:52:05.456                             : en:00:52:05.456\n00:55:38.919                             : en:00:55:38.919\n00:58:10.904                             : en:00:58:10.904\n01:02:11.394                             : en:01:02:11.394\n01:04:38.083                             : en:01:04:38.083\n01:07:03.937                             : en:01:07:03.937\n01:09:18.196                             : en:01:09:18.196\n01:10:21.342                             : en:01:10:21.342\n01:15:17.763                             : en:01:15:17.763\n01:17:00.157                             : en:01:17:00.157\n01:21:41.855                             : en:01:21:41.855\n01:25:24.619                             : en:01:25:24.619\n01:29:42.711                             : en:01:29:42.711\n01:32:27.959                             : en:01:32:27.959\n","torrent":{"xt":"urn:btih:84b831c8a7afb66691e483cf9694153fc81a85f5","amp;dn":"Rio.2.2014.BluRay.1080p.AC3.x264%7EInvincible%28HDDR%29","amp;tr":["udp%3A%2F%2Ftracker.openbittorrent.com%3A80","udp%3A%2F%2Fopen.demonii.com%3A1337","udp%3A%2F%2Ftracker.coppersurfer.tk%3A6969","udp%3A%2F%2Fexodus.desync.com%3A6969"],"infoHash":"84b831c8a7afb66691e483cf9694153fc81a85f5","infoHashBuffer":{"type":"Buffer","data":[132,184,49,200,167,175,182,102,145,228,131,207,150,148,21,63,200,26,133,245]},"announce":[],"urlList":[]}}